<svg width="39" height="39" viewBox="0 0 39 39" fill="none" xmlns="http://www.w3.org/2000/svg">
<path d="M17.3341 27.0178C16.8667 26.9751 16.3995 26.9261 15.931 26.8946C15.8348 26.8881 15.7104 26.9203 15.6399 26.9817C15.4358 27.1589 15.2597 27.3675 15.0587 27.5484C14.9445 27.6512 14.9547 27.7337 15.0103 27.8637C15.6897 29.4554 14.9076 31.2599 13.2993 31.8269C11.6664 32.4023 9.93704 31.4956 9.46593 29.8111C9.42426 29.6622 9.36767 29.588 9.20574 29.5445C7.53012 29.0937 6.5989 27.3376 7.16696 25.7203C7.73607 24.1 9.55842 23.306 11.1452 23.996C11.2956 24.0615 11.3771 24.0363 11.4793 23.927C11.6818 23.71 11.9855 23.538 12.0809 23.2845C12.1731 23.0392 12.0232 22.7136 12.0369 22.4261C12.084 21.4328 12.1029 20.4339 12.2284 19.4493C12.602 16.5199 13.5511 13.783 15.109 11.2665C15.7408 10.2463 16.4713 9.30318 17.3008 8.4329C18.2879 7.39747 19.5013 6.96521 20.907 7.00218C22.3261 7.0394 23.643 7.46091 24.8701 8.13957C27.8715 9.79992 30.1191 12.1633 31.4187 15.3671C31.9079 16.5726 32.1251 17.8304 31.9271 19.1371C31.7774 20.123 31.3315 20.9503 30.6219 21.6449C28.9835 23.2486 27.0718 24.4324 24.9702 25.3203C22.5313 26.3507 19.981 26.8755 17.3341 27.0176V27.0178ZM20.738 8.51154C20.6117 8.51966 20.4197 8.527 20.2287 8.54535C19.0278 8.66069 18.1747 9.41511 17.9155 10.5947C17.696 11.5945 17.8647 12.5665 18.215 13.4986C19.3768 16.5918 21.505 18.827 24.415 20.3342C25.4557 20.8732 26.5648 21.2092 27.7557 21.1725C29.3388 21.1238 30.3285 20.1859 30.4655 18.6167C30.5473 17.6817 30.3492 16.7886 30.0059 15.9315C28.934 13.2561 27.0912 11.2372 24.645 9.75693C23.4675 9.04445 22.204 8.55741 20.7378 8.51127L20.738 8.51154ZM12.7545 24.7289C12.5496 24.9504 12.3489 25.1792 12.1356 25.3955C11.6328 25.9053 11.3792 25.9261 10.8009 25.52C9.96403 24.9326 8.76843 25.3764 8.54728 26.3567C8.33793 27.2847 9.01709 28.1151 9.99783 28.1301C10.6052 28.1392 10.8586 28.3998 10.8727 29.0148C10.8761 29.1616 10.8942 29.3123 10.933 29.4536C11.0842 30.0041 11.55 30.4041 12.1073 30.4696C12.7338 30.543 13.2196 30.3055 13.5495 29.7736C13.8548 29.2811 13.8089 28.6501 13.4565 28.1738C13.0902 27.6787 13.1098 27.3675 13.5422 26.9361C13.7811 26.6975 14.0261 26.465 14.2622 26.2356C13.9687 25.985 13.696 25.7795 13.4568 25.5405C13.2183 25.3024 13.0134 25.0311 12.7545 24.7286V24.7289Z" fill="#FF6666"/>
<path d="M25.1111 16.8437C24.7519 16.8465 24.4291 16.7281 24.1773 16.4872C23.6105 15.9451 23.0396 15.4038 22.5164 14.8205C21.9865 14.2297 22.0413 13.4155 22.585 12.8543C23.1334 12.2883 23.9478 12.1961 24.5436 12.718C25.1649 13.2621 25.7463 13.8582 26.296 14.4753C26.6877 14.9152 26.7281 15.4622 26.4529 15.9938C26.1752 16.5309 25.7245 16.8243 25.1111 16.8439V16.8437Z" fill="#FF6666"/>
<rect x="0.75" y="0.75" width="37.5" height="37.5" rx="9.25" stroke="#FF6666" stroke-width="1.5"/>
</svg>
