<svg width="201" height="60" viewBox="0 0 201 60" fill="none" xmlns="http://www.w3.org/2000/svg">
<path d="M26.5346 42.0285C25.7867 41.9602 25.0392 41.8817 24.2896 41.8314C24.1358 41.8209 23.9366 41.8725 23.8238 41.9707C23.4973 42.2542 23.2155 42.588 22.894 42.8774C22.7112 43.0418 22.7276 43.174 22.8164 43.382C23.9035 45.9287 22.6521 48.8159 20.0788 49.7231C17.4662 50.6437 14.6993 49.1929 13.9455 46.4978C13.8788 46.2596 13.7883 46.1409 13.5292 46.0713C10.8482 45.3499 9.35824 42.5402 10.2671 39.9525C11.1777 37.3601 14.0935 36.0897 16.6323 37.1936C16.873 37.2984 17.0034 37.2581 17.1669 37.0833C17.4909 36.736 17.9768 36.4608 18.1294 36.0553C18.277 35.6627 18.0372 35.1418 18.059 34.6817C18.1344 33.0925 18.1646 31.4942 18.3654 29.9189C18.9633 25.2319 20.4817 20.8528 22.9745 16.8265C23.9852 15.1941 25.1541 13.6851 26.4814 12.2926C28.0606 10.636 30.0021 9.94434 32.2512 10.0035C34.5218 10.063 36.6289 10.7375 38.5921 11.8233C43.3944 14.4799 46.9906 18.2613 49.07 23.3873C49.8527 25.3162 50.2002 27.3286 49.8833 29.4193C49.6439 30.9967 48.9304 32.3204 47.7951 33.4318C45.1736 35.9978 42.1149 37.8919 38.7523 39.3124C34.8501 40.9611 30.7697 41.8008 26.5346 42.0281V42.0285ZM31.9808 12.4185C31.7788 12.4315 31.4715 12.4432 31.1659 12.4726C29.2445 12.6571 27.8795 13.8642 27.4649 15.7515C27.1136 17.3512 27.3835 18.9063 27.9441 20.3978C29.8029 25.3468 33.2079 28.9232 37.8639 31.3348C39.5291 32.1971 41.3037 32.7348 43.2091 32.6761C45.7421 32.5981 47.3256 31.0974 47.5448 28.5868C47.6756 27.0908 47.3587 25.6618 46.8095 24.2903C45.0944 20.0098 42.146 16.7795 38.232 14.4111C36.348 13.2711 34.3264 12.4919 31.9804 12.418L31.9808 12.4185ZM19.2073 38.3662C18.8794 38.7206 18.5583 39.0868 18.217 39.4328C17.4125 40.2486 17.0067 40.2817 16.0815 39.632C14.7424 38.6921 12.8295 39.4022 12.4757 40.9708C12.1407 42.4555 13.2273 43.7842 14.7965 43.8081C15.7683 43.8228 16.1737 44.2397 16.1963 45.2236C16.2018 45.4585 16.2307 45.6997 16.2928 45.9257C16.5347 46.8065 17.2801 47.4465 18.1718 47.5514C19.1741 47.6688 19.9514 47.2888 20.4792 46.4378C20.9676 45.6497 20.8942 44.6402 20.3304 43.8782C19.7443 43.0859 19.7757 42.588 20.4675 41.8977C20.8498 41.516 21.2418 41.144 21.6195 40.777C21.15 40.3761 20.7136 40.0472 20.3308 39.6647C19.9493 39.2839 19.6215 38.8498 19.2073 38.3658V38.3662Z" fill="#FF6666"/>
<path d="M38.9778 25.7499C38.4031 25.7545 37.8866 25.5649 37.4837 25.1795C36.5769 24.3121 35.6634 23.446 34.8262 22.5128C33.9785 21.5675 34.0661 20.2648 34.936 19.3668C35.8135 18.4613 37.1164 18.3137 38.0698 19.1487C39.0638 20.0194 39.994 20.9732 40.8736 21.9605C41.5003 22.6642 41.5649 23.5396 41.1247 24.3901C40.6803 25.2495 39.9592 25.7188 38.9778 25.7503V25.7499Z" fill="#FF6666"/>
<path d="M66.6289 38V20.9375H77.6562V23.7969H70.3555V28.3555H76.7305V31.1211H70.3555V38H66.6289ZM78.7227 32.1758V31.8008C78.7227 29.9258 79.3047 28.4336 80.4688 27.3242C81.6328 26.207 83.1562 25.6484 85.0391 25.6484C86.9219 25.6484 88.4453 26.207 89.6094 27.3242C90.7734 28.4336 91.3555 29.9258 91.3555 31.8008V32.1758C91.3555 34.0586 90.7734 35.5586 89.6094 36.6758C88.4453 37.7852 86.9219 38.3398 85.0391 38.3398C83.1562 38.3398 81.6328 37.7852 80.4688 36.6758C79.3047 35.5586 78.7227 34.0586 78.7227 32.1758ZM82.4023 31.625V32.3516C82.4023 33.4141 82.6289 34.2305 83.082 34.8008C83.543 35.3711 84.1953 35.6562 85.0391 35.6562C85.8906 35.6562 86.543 35.3711 86.9961 34.8008C87.4492 34.2305 87.6758 33.4141 87.6758 32.3516V31.625C87.6758 30.5625 87.4453 29.75 86.9844 29.1875C86.5234 28.6172 85.875 28.332 85.0391 28.332C84.2031 28.332 83.5547 28.6172 83.0938 29.1875C82.6328 29.75 82.4023 30.5625 82.4023 31.625ZM92.8789 32.1758V31.8008C92.8789 29.9258 93.4609 28.4336 94.625 27.3242C95.7891 26.207 97.3125 25.6484 99.1953 25.6484C101.078 25.6484 102.602 26.207 103.766 27.3242C104.93 28.4336 105.512 29.9258 105.512 31.8008V32.1758C105.512 34.0586 104.93 35.5586 103.766 36.6758C102.602 37.7852 101.078 38.3398 99.1953 38.3398C97.3125 38.3398 95.7891 37.7852 94.625 36.6758C93.4609 35.5586 92.8789 34.0586 92.8789 32.1758ZM96.5586 31.625V32.3516C96.5586 33.4141 96.7852 34.2305 97.2383 34.8008C97.6992 35.3711 98.3516 35.6562 99.1953 35.6562C100.047 35.6562 100.699 35.3711 101.152 34.8008C101.605 34.2305 101.832 33.4141 101.832 32.3516V31.625C101.832 30.5625 101.602 29.75 101.141 29.1875C100.68 28.6172 100.031 28.332 99.1953 28.332C98.3594 28.332 97.7109 28.6172 97.25 29.1875C96.7891 29.75 96.5586 30.5625 96.5586 31.625ZM107.035 32.1875V31.8125C107.035 30.0312 107.516 28.582 108.477 27.4648C109.438 26.3398 110.688 25.7773 112.227 25.7773C113.008 25.7773 113.684 25.9141 114.254 26.1875C114.824 26.4531 115.266 26.8086 115.578 27.2539V20.2578H119.141V38H115.719L115.66 36.5469H115.613C115.34 37.0234 114.902 37.4258 114.301 37.7539C113.707 38.0742 113.02 38.2344 112.238 38.2344C110.621 38.2344 109.348 37.6719 108.418 36.5469C107.496 35.4219 107.035 33.9688 107.035 32.1875ZM110.703 32.3047C110.703 33.2812 110.91 34.0742 111.324 34.6836C111.746 35.2852 112.375 35.5859 113.211 35.5859C113.781 35.5859 114.266 35.4297 114.664 35.1172C115.062 34.8047 115.355 34.4297 115.543 33.9922V29.9844C115.363 29.5547 115.078 29.1875 114.688 28.8828C114.305 28.5703 113.812 28.4141 113.211 28.4141C112.383 28.4141 111.758 28.7188 111.336 29.3281C110.914 29.9375 110.703 30.7266 110.703 31.6953V32.3047ZM122.176 38V20.9375H133.203V23.7969H125.902V28.3555H132.277V31.1211H125.902V38H122.176ZM135.184 38V26.0117H138.805V38H135.184ZM134.902 22.4961C134.902 21.957 135.082 21.5039 135.441 21.1367C135.801 20.7695 136.32 20.5859 137 20.5859C137.672 20.5859 138.188 20.7695 138.547 21.1367C138.906 21.5039 139.086 21.957 139.086 22.4961C139.086 23.0352 138.902 23.4922 138.535 23.8672C138.176 24.2344 137.66 24.418 136.988 24.418C136.316 24.418 135.801 24.2344 135.441 23.8672C135.082 23.4922 134.902 23.0352 134.902 22.4961ZM141.629 38V26.0117H145.086L145.145 27.418H145.203C145.508 26.9258 145.973 26.5234 146.598 26.2109C147.223 25.8984 147.93 25.7422 148.719 25.7422C149.953 25.7422 150.957 26.0898 151.73 26.7852C152.504 27.4805 152.891 28.6875 152.891 30.4062V38H149.293V30.4883C149.293 29.7539 149.133 29.2383 148.812 28.9414C148.5 28.6445 148.055 28.4961 147.477 28.4961C147 28.4961 146.559 28.6328 146.152 28.9062C145.746 29.1797 145.441 29.5625 145.238 30.0547V38H141.629ZM154.941 32.1875V31.8125C154.941 30.0312 155.422 28.582 156.383 27.4648C157.344 26.3398 158.594 25.7773 160.133 25.7773C160.914 25.7773 161.59 25.9141 162.16 26.1875C162.73 26.4531 163.172 26.8086 163.484 27.2539V20.2578H167.047V38H163.625L163.566 36.5469H163.52C163.246 37.0234 162.809 37.4258 162.207 37.7539C161.613 38.0742 160.926 38.2344 160.145 38.2344C158.527 38.2344 157.254 37.6719 156.324 36.5469C155.402 35.4219 154.941 33.9688 154.941 32.1875ZM158.609 32.3047C158.609 33.2812 158.816 34.0742 159.23 34.6836C159.652 35.2852 160.281 35.5859 161.117 35.5859C161.688 35.5859 162.172 35.4297 162.57 35.1172C162.969 34.8047 163.262 34.4297 163.449 33.9922V29.9844C163.27 29.5547 162.984 29.1875 162.594 28.8828C162.211 28.5703 161.719 28.4141 161.117 28.4141C160.289 28.4141 159.664 28.7188 159.242 29.3281C158.82 29.9375 158.609 30.7266 158.609 31.6953V32.3047ZM169.215 32.1758V31.8008C169.215 29.9492 169.781 28.4648 170.914 27.3477C172.055 26.2227 173.523 25.6602 175.32 25.6602C177.125 25.6602 178.531 26.1875 179.539 27.2422C180.555 28.2969 181.062 29.7539 181.062 31.6133V32.8203H171.523V30.6992H177.523V30.4766C177.523 29.8438 177.332 29.3125 176.949 28.8828C176.574 28.4453 176.027 28.2266 175.309 28.2266C174.488 28.2266 173.863 28.5312 173.434 29.1406C173.012 29.7422 172.801 30.5469 172.801 31.5547V32.3281C172.801 33.375 173.031 34.2031 173.492 34.8125C173.953 35.4141 174.629 35.7148 175.52 35.7148C176.145 35.7148 176.68 35.5664 177.125 35.2695C177.578 34.9727 177.941 34.6172 178.215 34.2031L180.875 35.6445C180.492 36.4414 179.844 37.0898 178.93 37.5898C178.016 38.0898 176.898 38.3398 175.578 38.3398C173.586 38.3398 172.027 37.7812 170.902 36.6641C169.777 35.5391 169.215 34.043 169.215 32.1758ZM183.09 38V26.0117H186.582L186.641 27.3828H186.688C186.945 26.9219 187.297 26.5273 187.742 26.1992C188.195 25.8633 188.703 25.6953 189.266 25.6953C189.445 25.6953 189.621 25.7148 189.793 25.7539C189.973 25.793 190.102 25.8281 190.18 25.8594V28.8477C190.039 28.8086 189.883 28.7812 189.711 28.7656C189.547 28.7422 189.363 28.7305 189.16 28.7305C188.637 28.7305 188.152 28.8906 187.707 29.2109C187.27 29.5234 186.941 29.9297 186.723 30.4297V38H183.09Z" fill="#FF6666"/>
</svg>
