<svg width="17" height="23" viewBox="0 0 17 23" fill="none" xmlns="http://www.w3.org/2000/svg">
<path d="M8.05 0C3.5995 0 0 3.5995 0 8.05C0 10.051 0.575 11.9255 1.6215 13.616C2.714 15.387 4.1515 16.905 5.2555 18.676C5.796 19.5385 6.187 20.3435 6.601 21.275C6.9 21.9075 7.1415 23 8.05 23C8.9585 23 9.2 21.9075 9.4875 21.275C9.913 20.3435 10.2925 19.5385 10.833 18.676C11.937 16.9165 13.3745 15.3985 14.467 13.616C15.525 11.9255 16.1 10.051 16.1 8.05C16.1 3.5995 12.5005 0 8.05 0ZM8.05 11.2125C6.463 11.2125 5.175 9.9245 5.175 8.3375C5.175 6.7505 6.463 5.4625 8.05 5.4625C9.637 5.4625 10.925 6.7505 10.925 8.3375C10.925 9.9245 9.637 11.2125 8.05 11.2125Z" fill="#FF6666"/>
</svg>
