<svg width="50" height="51" viewBox="0 0 50 51" fill="none" xmlns="http://www.w3.org/2000/svg">
<rect y="0.5" width="50" height="50" rx="25" fill="#FF6666"/>
<path d="M33.8258 16.6719C31.5588 14.4062 28.4475 13 24.9922 13C18.0816 13 12.5 18.5937 12.5 25.5C12.5 32.4063 18.0816 38 24.9922 38C30.824 38 35.6864 34.0156 37.0779 28.625H33.8258C32.5438 32.2656 29.0729 34.875 24.9922 34.875C19.8171 34.875 15.6113 30.6719 15.6113 25.5C15.6113 20.3281 19.8171 16.125 24.9922 16.125C27.5876 16.125 29.9015 17.2031 31.5901 18.9063L26.5557 23.9375H37.5V13L33.8258 16.6719Z" fill="white"/>
</svg>
