<svg width="39" height="39" viewBox="0 0 39 39" fill="none" xmlns="http://www.w3.org/2000/svg">
<rect width="39" height="39" rx="10" fill="#FF6666"/>
<path d="M19.5 12.75C20.7375 12.75 21.75 13.7625 21.75 15C21.75 16.2375 20.7375 17.25 19.5 17.25C18.2625 17.25 17.25 16.2375 17.25 15C17.25 13.7625 18.2625 12.75 19.5 12.75ZM19.5 24C22.5375 24 26.025 25.4513 26.25 26.25H12.75C13.0088 25.44 16.4738 24 19.5 24ZM19.5 10.5C17.0138 10.5 15 12.5137 15 15C15 17.4863 17.0138 19.5 19.5 19.5C21.9863 19.5 24 17.4863 24 15C24 12.5137 21.9863 10.5 19.5 10.5ZM19.5 21.75C16.4963 21.75 10.5 23.2575 10.5 26.25V28.5H28.5V26.25C28.5 23.2575 22.5038 21.75 19.5 21.75Z" fill="white"/>
</svg>
